PathFileType	4	(X/Y/Z)	 s02c0102.trc
DataRate	CameraRate	NumFrames	NumMarkers	Units	OrigDataRate	OrigDataStartFrame	OrigNumFrames
200	200	6	51	mm	200	751	2000
Frame#	Time	racr			lacr			c7			jug			rlel			rdr			llel			ldr			s2			lic			ric			lasi			rasi			rpsi			lpsi			rgt			lgt			rth1			rth2			rth3			rth4			rlfc			rmfc			rsh1			rsh2			rsh3			rsh4			rlmal			rmmal			rcal			rtoe			rmt5			rmt1			lth1			lth2			lth4			lth3			llfc			lmfc			lsh1			lsh2			lsh3			lsh4			llmal			lmmal			lcal			ltoe			lmt5			SBIKE			LBIKE			RBIKE			
		X1	Y1	Z1	X2	Y2	Z2	X3	Y3	Z3	X4	Y4	Z4	X5	Y5	Z5	X6	Y6	Z6	X7	Y7	Z7	X8	Y8	Z8	X9	Y9	Z9	X10	Y10	Z10	X11	Y11	Z11	X12	Y12	Z12	X13	Y13	Z13	X14	Y14	Z14	X15	Y15	Z15	X16	Y16	Z16	X17	Y17	Z17	X18	Y18	Z18	X19	Y19	Z19	X20	Y20	Z20	X21	Y21	Z21	X22	Y22	Z22	X23	Y23	Z23	X24	Y24	Z24	X25	Y25	Z25	X26	Y26	Z26	X27	Y27	Z27	X28	Y28	Z28	X29	Y29	Z29	X30	Y30	Z30	X31	Y31	Z31	X32	Y32	Z32	X33	Y33	Z33	X34	Y34	Z34	X35	Y35	Z35	X36	Y36	Z36	X37	Y37	Z37	X38	Y38	Z38	X39	Y39	Z39	X40	Y40	Z40	X41	Y41	Z41	X42	Y42	Z42	X43	Y43	Z43	X44	Y44	Z44	X45	Y45	Z45	X46	Y46	Z46	X47	Y47	Z47	X48	Y48	Z48	X49	Y49	Z49	X50	Y50	Z50	X51	Y51	Z51	
751	3.7550	557.628881	1227.286325	-147.166737	532.631951	1237.491599	-482.195949	531.224479	1274.184440	-314.742344	460.498145	1148.841929	-310.756539	577.841234	982.436309	-35.547567	726.307291	845.366958	-109.075375	497.516971	965.975254	-568.760619	698.430292	864.957836	-507.062557	5.958439	1101.629334	-306.821531	142.878651	1115.251646	-449.510932	133.374980	1105.785086	-160.668946	187.821521	1088.343976	-420.645495	185.114105	1074.735684	-186.386017	32.555785	1152.029915	-254.268469	42.059847	1166.449350	-338.227934	109.542404	1016.138642	-121.686743	103.060477	1023.206636	-480.894036	197.050820	976.907877	-124.815562	281.470677	949.921970	-123.372587	340.659275	893.794606	-97.302646	299.220639	973.256441	-147.152111	429.352543	780.937297	-124.533940	418.833677	764.868330	-235.031041	367.545647	686.880987	-114.076943	313.965614	617.819171	-137.755524	236.216000	580.476141	-135.441811	325.231164	611.333351	-174.957626	137.953434	516.287936	-144.108852	163.138128	527.399772	-224.474511	55.122937	532.391739	-190.082462	243.108164	315.772693	-186.641356	158.113816	385.486278	-131.290128	185.463701	373.095553	-239.090031	227.073160	944.022035	-494.697004	303.617867	903.456161	-488.731939	325.956485	928.263269	-473.472408	349.886994	827.408042	-487.601838	420.402578	757.810875	-464.922902	427.062556	723.155950	-363.469078	415.604254	652.692317	-489.554397	424.994463	567.634328	-476.767522	389.844715	484.285806	-483.164540	441.324517	566.960014	-439.319925	355.117452	381.078940	-476.922819	369.340746	375.486412	-398.902180	285.608632	336.904330	-443.882414	569.858447	277.719882	-434.557652	464.215120	276.397579	-500.622786	-162.432110	860.026939	-310.875821	37.375085	86.154965	-514.350360	34.291455	82.746105	-114.497385	
752	3.7600	557.101228	1228.234182	-146.610171	535.146362	1237.981443	-481.338948	532.209351	1274.834578	-314.231754	461.529111	1149.461996	-310.744717	578.012107	983.140500	-36.175679	726.450235	845.562509	-109.117194	499.448156	966.976451	-569.868549	699.234746	864.867279	-506.995971	6.734824	1103.176938	-309.284484	144.579915	1115.058760	-451.091412	132.961849	1108.352791	-162.374612	189.375220	1088.225615	-421.879463	184.922035	1077.129612	-187.408217	33.139633	1154.473683	-256.979885	43.408511	1167.509119	-340.590028	109.691277	1019.764264	-122.244723	104.038290	1022.347091	-481.668684	197.327302	981.124439	-125.454946	282.307626	955.706590	-123.166315	342.268432	900.642533	-96.820945	299.836854	979.498564	-146.775483	433.117667	788.985523	-123.884404	423.749139	773.647344	-235.555866	371.198469	695.320074	-113.481629	316.151754	626.714118	-137.919045	239.184252	589.639201	-135.137934	328.341716	619.569869	-174.943775	140.734877	525.980321	-144.085408	165.052093	538.255790	-223.742988	57.791284	541.692940	-189.910443	246.682605	325.925435	-186.605594	161.374811	395.301984	-131.182614	188.829761	382.957130	-238.900997	225.816990	940.097148	-496.019980	301.933164	898.041815	-489.386109	325.444790	922.622224	-474.998463	346.177926	820.901749	-487.927270	415.259913	749.891283	-465.434660	416.710082	715.475952	-364.192574	410.338198	644.953338	-490.241588	420.918600	559.959313	-477.664423	386.759199	476.236168	-483.555966	437.211708	559.432970	-439.872942	353.735598	372.934535	-476.971301	367.806594	367.352735	-399.150148	283.952354	330.220676	-443.998107	567.248264	266.345815	-434.430718	461.585576	266.795704	-500.549528	-162.282343	860.166909	-310.762769	37.372136	86.211492	-514.334933	34.274121	82.794058	-114.459535	
753	3.7650	556.646032	1229.313949	-146.202369	537.748923	1238.658866	-480.436875	533.241767	1275.634743	-313.497776	462.746357	1150.153955	-310.598676	578.268551	983.788404	-36.632812	726.599902	845.682205	-109.481876	501.640016	968.382333	-570.740238	700.134549	864.868582	-506.787817	7.637414	1104.826956	-311.359606	146.334509	1115.180037	-452.814432	132.591398	1111.087125	-164.004110	190.987289	1088.148865	-423.090970	184.909100	1079.604178	-188.363863	33.803547	1156.879099	-259.766668	44.520725	1168.692148	-343.173321	109.962322	1023.662577	-122.759057	104.934773	1021.695840	-482.483373	197.603485	985.493420	-125.875628	282.712335	961.511000	-123.412454	344.020698	907.816911	-96.405081	300.309885	985.845672	-146.402996	437.009170	797.568255	-123.200932	428.916555	783.163269	-236.027995	375.108896	704.027056	-113.138946	319.773787	635.690319	-137.499716	242.609607	598.874139	-134.855381	331.905007	628.377560	-174.616118	143.963874	535.300164	-143.971689	166.403718	547.925618	-223.588582	60.857039	551.011412	-189.913520	250.850715	335.920602	-186.616584	165.403471	404.865422	-130.916386	192.578676	392.678998	-238.753697	224.877817	936.892072	-496.873830	299.929571	892.819585	-490.099494	324.106417	916.859533	-475.943536	342.156897	814.556493	-488.323444	409.508977	742.193119	-465.839586	410.892720	709.429005	-365.003166	404.612144	637.287116	-490.977517	416.263211	552.516884	-478.248099	383.216579	468.318112	-484.004588	432.487040	552.386677	-440.482108	351.644872	365.137795	-477.343334	365.612685	359.408121	-399.420483	281.749384	323.674357	-444.179150	563.963654	255.253286	-434.426069	458.468599	257.415960	-500.474891	-162.377400	860.056548	-310.743535	37.376198	86.225174	-514.297304	34.231999	82.855256	-114.380535	
754	3.7700	556.190761	1230.294007	-145.821526	540.414613	1239.381995	-479.393765	534.359393	1276.345684	-313.151468	463.915198	1150.835581	-310.793052	578.553451	984.451176	-36.951947	726.766917	846.023460	-109.481941	504.013418	969.855488	-571.651666	701.071041	864.689622	-506.628955	8.881968	1106.411550	-312.388498	148.030428	1115.092830	-454.040792	132.247123	1113.911144	-165.757891	192.556265	1088.156844	-424.006443	184.937040	1082.177502	-189.352415	34.478339	1159.473198	-262.619519	46.085116	1170.131077	-346.191861	110.210165	1027.673660	-123.215516	105.706977	1021.127940	-483.272382	197.930342	989.980801	-126.121668	283.532383	967.838109	-123.017035	345.890756	915.127626	-96.015338	300.684784	992.300033	-146.213631	440.908808	806.598074	-122.516781	433.282157	792.158293	-235.528903	378.685415	712.660415	-113.920253	323.690553	644.716177	-137.174572	246.416774	608.089475	-134.679821	335.778641	637.167680	-174.332623	147.724416	544.515424	-143.925617	169.453006	557.225209	-223.154950	64.485722	559.862424	-189.897909	255.404527	345.638594	-186.724911	169.626409	414.274104	-130.813005	196.933191	402.132791	-238.654617	223.939917	933.763155	-497.646557	297.681159	887.849136	-490.837685	322.005332	911.091544	-476.253345	337.785742	808.474428	-488.797981	403.448958	734.668912	-466.325744	404.037821	702.208523	-366.140830	398.607835	629.929963	-491.804785	411.139757	545.309374	-478.817622	379.126701	460.694088	-484.537269	427.281113	544.963039	-440.252140	349.126313	357.539405	-477.750196	362.794275	351.756494	-399.713058	279.004918	317.411070	-444.281589	560.139336	244.308398	-434.007496	454.721058	248.294407	-500.368726	-162.348590	860.098917	-310.652927	37.360399	86.204097	-514.296059	34.174154	82.906457	-114.317124	
755	3.7750	555.734727	1231.258441	-145.367477	543.114244	1240.090000	-478.110809	535.404116	1277.080166	-312.540701	465.245349	1151.410875	-310.806462	578.813687	985.083252	-37.140029	726.903917	846.402643	-109.568751	506.524444	971.617684	-572.564265	702.014017	864.459528	-506.472414	9.923558	1108.266491	-314.560037	149.783404	1115.114809	-455.427388	131.945307	1116.926064	-167.499987	194.240064	1088.304451	-425.111054	184.898415	1084.984263	-190.409843	35.155071	1162.099048	-265.571053	47.518627	1171.620985	-349.083648	110.486747	1031.841756	-123.718541	106.322845	1020.779575	-484.033012	198.448610	994.837711	-125.609849	284.715075	974.659704	-122.043027	347.827098	922.940700	-95.578153	300.932374	998.782352	-146.407923	444.913174	815.945192	-121.875446	435.792176	799.374603	-233.140065	382.802187	721.351511	-113.252458	327.912488	653.669867	-136.853849	250.506308	617.206482	-134.560866	339.603955	646.457512	-173.812532	151.909078	553.583816	-143.952966	173.616529	566.249402	-223.120363	68.608715	568.306627	-189.758050	260.644865	355.124370	-186.779758	174.587941	423.452513	-130.810273	201.726328	411.457698	-238.547552	222.655535	931.048861	-498.567773	295.503385	883.421021	-492.210884	320.075827	905.691721	-476.972331	333.143466	802.720468	-489.606525	397.050557	727.010784	-466.985564	396.989221	695.171757	-367.115000	392.277307	622.828357	-492.600927	405.702945	538.402859	-479.241247	374.600143	453.494013	-485.209567	421.709321	538.691711	-441.465270	346.140461	350.244847	-478.227503	359.600612	344.374772	-400.028001	275.831657	311.364440	-444.407143	555.744123	233.600890	-433.988689	450.394479	239.327185	-500.311959	-162.281243	860.181073	-310.653294	37.392815	86.236122	-514.283473	34.122614	82.991673	-114.248132	
756	3.7800	555.258179	1232.194008	-144.817364	545.825014	1240.717472	-476.779108	536.384298	1277.851875	-311.898347	466.602741	1151.976104	-310.823589	579.051016	985.763905	-37.174147	727.007610	846.773225	-109.688797	509.274823	973.236500	-573.563657	703.045472	864.128134	-506.375019	11.050936	1110.178499	-316.767776	151.494965	1115.806676	-456.510988	131.573945	1119.770488	-169.197613	195.786079	1088.432454	-426.087684	184.131384	1087.449601	-191.837412	36.012074	1164.650028	-268.520957	49.052363	1173.298707	-352.183902	110.600671	1036.049093	-124.349418	106.975814	1020.514569	-484.704439	198.803275	999.844390	-125.146108	285.525678	981.294546	-121.814880	349.814390	930.897957	-95.223386	301.137434	1005.224770	-146.694216	448.986009	825.718814	-120.968736	440.073954	808.507327	-232.751541	387.168182	730.427732	-112.808004	332.324875	662.773119	-136.654153	255.083310	626.197813	-134.457515	344.273725	655.564932	-173.403275	156.683467	562.276672	-143.925222	178.515274	575.016991	-223.659238	73.209935	577.370672	-189.237247	266.322795	364.422198	-186.772917	180.048334	432.252131	-130.857734	206.681310	421.592812	-237.490602	221.358901	928.542020	-499.389007	292.775075	878.944193	-492.891061	317.954533	900.643176	-477.712893	328.191846	797.212076	-489.981966	390.384399	720.027327	-467.795103	389.924713	688.336584	-367.836069	385.667029	616.145486	-493.511304	399.857752	531.928092	-479.922002	369.616294	446.566070	-485.908118	415.619416	532.322290	-442.199902	342.653677	343.219486	-478.787378	355.896039	337.278897	-400.405056	272.175969	305.658646	-444.615838	550.750655	223.343775	-434.215989	445.605591	230.613890	-500.278089	-162.282266	860.257982	-310.594283	37.408084	86.252625	-514.264701	34.080981	83.049329	-114.173912	
